PathFileType  4	(X/Y/Z) C:\Users\antoi\Documents\MyRepositories\mobilecap\ResultsAnalysis
DataRate	CameraRate	NumFrames	NumMarkers	Units	OrigDataRate	OrigDataStartFrame	OrigNumFrames
100.0	100.0	5	51	mm	100.0	33	261
Frame#	Time	r_knee			r_shank_antsup			r_ankle			r_calc			r_5meta			r_toe			L_knee			L_shank_antsup			L_ankle			L_calc			L_5meta			L_toe			r_sh2			r_sh3			r_sh4			L_sh2			L_sh3			r_thigh1			r_thigh2			r_thigh3			r_thigh4			r_thigh5			L_thigh1			L_thigh2			L_thigh3			L_thigh4			r.ASIS			r.PSIS			L.ASIS			L.PSIS			C7			R_Shoulder			L_Shoulder			R_Sternum			L_Sternum			R_humerus			R_elbow_med			R_elbow_lat			R_forearm			R_wrist_radius			R_wrist_ulna			L_humerus			L_elbow_med			L_elbow_lat			L_forearm			L_wrist_radius			L_wrist_ulna			R_HJC			L_HJC			R_HJC_reg			L_HJC_reg			
		X1	Y1	Z1	X2	Y2	Z2	X3	Y3	Z3	X4	Y4	Z4	X5	Y5	Z5	X6	Y6	Z6	X7	Y7	Z7	X8	Y8	Z8	X9	Y9	Z9	X10	Y10	Z10	X11	Y11	Z11	X12	Y12	Z12	X13	Y13	Z13	X14	Y14	Z14	X15	Y15	Z15	X16	Y16	Z16	X17	Y17	Z17	X18	Y18	Z18	X19	Y19	Z19	X20	Y20	Z20	X21	Y21	Z21	X22	Y22	Z22	X23	Y23	Z23	X24	Y24	Z24	X25	Y25	Z25	X26	Y26	Z26	X27	Y27	Z27	X28	Y28	Z28	X29	Y29	Z29	X30	Y30	Z30	X31	Y31	Z31	X32	Y32	Z32	X33	Y33	Z33	X34	Y34	Z34	X35	Y35	Z35	X36	Y36	Z36	X37	Y37	Z37	X38	Y38	Z38	X39	Y39	Z39	X40	Y40	Z40	X41	Y41	Z41	X42	Y42	Z42	X43	Y43	Z43	X44	Y44	Z44	X45	Y45	Z45	X46	Y46	Z46	X47	Y47	Z47	X48	Y48	Z48	X49	Y49	Z49	X50	Y50	Z50	X51	Y51	Z51	

33	0.32000000	-1152.65454	849.73485	-427.99251	-1126.66479	750.31375	-438.23122	-1257.25649	435.46832	-472.29196	-1343.80003	387.67723	-521.50338	-1151.13261	358.17160	-425.33208	-1090.31127	383.77712	-487.34281	-1195.63782	847.12924	-731.59480	-1197.19235	753.28843	-750.11441	-1271.46690	426.87963	-682.60783	-1346.12968	380.18733	-623.19268	-1159.05194	360.94206	-719.99601	-1098.92506	392.19509	-659.54538	-1162.75211	644.02431	-418.70578	-1186.76012	776.31680	-398.69516	-1238.86191	673.40901	-396.90522	-1286.42832	768.70538	-746.84659	-1292.86615	646.94878	-735.61273	-1109.10250	1176.49582	-396.54068	-1092.51095	1068.09342	-410.37639	-1140.48081	1033.10068	-379.75177	-1219.69468	1154.05599	-386.95754	-1193.90786	1041.99939	-393.70809	-1116.81046	1136.41323	-749.85006	-1111.12413	996.89197	-732.54968	-1224.57257	1128.48737	-771.98242	-1223.91933	991.81432	-757.15551	-1115.21505	1388.85753	-447.43103	-1296.85509	1406.62971	-515.31573	-1107.34585	1380.81115	-696.53900	-1294.69136	1407.44127	-627.76678	-1114.86615	1940.98398	-578.45326	-1077.65250	1875.20875	-411.80285	-1093.66912	1875.66517	-747.06368	-1024.42150	1820.08768	-548.25012	-1028.88663	1818.80224	-606.68245	-1147.05862	1737.18440	-333.39107	-1332.25872	1618.17079	-357.16924	-1304.57395	1631.17410	-277.70446	-1348.30769	1467.03565	-230.06122	-1361.94838	1371.57830	-221.92446	-1396.08384	1400.14684	-206.72668	-1173.41117	1790.39156	-830.42797	-1340.66192	1616.32078	-801.74881	-1329.76371	1640.39779	-877.91822	-1336.81805	1577.03265	-923.72455	-1410.31535	1419.95804	-975.04075	-1445.61940	1441.39044	-975.71210	-1198.59311	1274.88113	-464.52748	-1199.79635	1276.45504	-671.47859	-1175.31197	1303.99679	-484.19444	-1172.14390	1305.18294	-648.73555	
34	0.33000000	-1151.51477	849.84418	-427.75518	-1125.87314	750.37160	-438.28211	-1257.01059	435.79081	-472.45936	-1343.69988	388.11962	-521.47807	-1151.13985	358.33295	-425.43505	-1090.24378	383.79584	-487.40367	-1196.24406	847.21613	-731.83356	-1197.61074	753.39472	-750.35437	-1271.57046	426.82115	-682.73619	-1346.21184	380.05664	-623.30956	-1159.12280	360.98170	-720.04140	-1099.04491	392.35184	-659.54111	-1162.00416	644.17662	-418.76969	-1185.60069	776.49099	-398.31649	-1238.01281	673.60624	-396.82116	-1286.88422	768.57472	-747.02607	-1293.34484	646.88625	-735.67098	-1109.32348	1176.57426	-396.83173	-1092.31351	1068.17938	-410.72683	-1140.10489	1033.07507	-379.77124	-1219.71454	1153.66816	-386.97082	-1193.54013	1041.80049	-393.55799	-1117.70241	1136.58221	-749.81858	-1111.84275	996.96363	-732.56123	-1225.37532	1128.39191	-772.15154	-1224.58908	991.84537	-757.38216	-1115.64309	1388.29742	-447.71852	-1296.63836	1407.03378	-514.94251	-1108.05507	1380.44695	-696.79030	-1295.22535	1408.16777	-627.95994	-1108.74656	1939.77306	-578.68290	-1072.50338	1873.78514	-411.59936	-1088.15129	1874.55418	-747.18947	-1019.71075	1817.93700	-548.06129	-1024.13010	1816.67269	-606.58622	-1146.49747	1738.44457	-332.83928	-1334.98271	1625.28577	-358.19231	-1308.11795	1638.10034	-278.47391	-1359.38455	1476.76520	-229.25797	-1377.16132	1382.20172	-219.82648	-1410.56899	1412.13276	-206.17040	-1170.57265	1792.22680	-830.05455	-1343.37009	1623.92740	-801.34889	-1332.09614	1647.99589	-877.56415	-1342.01751	1585.56325	-923.97735	-1422.41389	1431.91352	-975.61613	-1456.84220	1454.76293	-975.63701	-1199.46229	1274.76479	-464.78528	-1201.03367	1276.61923	-671.73172	-1175.60136	1303.59289	-484.27987	-1173.53997	1305.24208	-648.80131	
35	0.34000000	-1150.40728	850.17774	-427.47790	-1124.91116	750.54613	-438.12103	-1256.81150	436.11792	-472.65455	-1343.74591	388.56459	-521.65550	-1151.14070	358.48470	-425.50313	-1090.12326	383.85049	-487.41078	-1196.88312	847.22976	-731.89217	-1198.05507	753.47472	-750.57136	-1271.63526	426.78440	-682.85293	-1346.20357	379.91757	-623.34831	-1159.18620	360.98523	-720.09004	-1099.12934	392.45839	-659.58512	-1161.23769	644.30032	-418.97167	-1184.57185	776.71710	-397.90282	-1236.95059	674.13343	-396.76296	-1287.38034	768.48565	-747.22452	-1293.70786	646.89403	-735.77268	-1109.59677	1176.68007	-397.16548	-1092.15178	1068.29292	-411.09571	-1139.68297	1033.10575	-379.86868	-1219.72555	1153.31879	-386.90169	-1193.17280	1041.68455	-393.45059	-1118.72762	1136.75813	-749.86488	-1112.66643	997.07630	-732.59907	-1226.30249	1128.33047	-772.15875	-1225.40193	991.79192	-757.33396	-1116.09348	1387.72354	-448.06133	-1296.81146	1407.62662	-514.63948	-1108.90731	1379.97565	-696.85440	-1295.84925	1408.88325	-628.06206	-1102.42203	1938.47033	-578.74064	-1067.34767	1872.35735	-411.38917	-1082.49186	1873.31905	-747.15206	-1014.99163	1815.76003	-547.79437	-1019.07155	1814.19888	-606.68118	-1145.66061	1739.52800	-332.70889	-1337.33263	1632.48647	-359.27155	-1311.21093	1645.15567	-279.33468	-1369.81630	1486.90629	-228.80403	-1391.95968	1393.15508	-218.46316	-1424.12614	1424.63393	-205.94395	-1167.51275	1793.93152	-829.64343	-1345.64141	1631.44741	-800.90096	-1334.02215	1655.60990	-876.86595	-1346.88271	1593.89617	-923.31962	-1433.79328	1444.06305	-975.53407	-1467.28289	1468.30886	-974.96113	-1200.59072	1274.73100	-464.92666	-1202.50183	1276.73814	-671.86898	-1176.36020	1303.45693	-484.40562	-1174.96773	1305.27894	-648.74229	
36	0.35000000	-1149.32882	850.52875	-427.35652	-1124.02448	750.73257	-438.11242	-1256.58436	436.42299	-472.95436	-1343.88304	389.10451	-522.15405	-1151.12340	358.57799	-425.54492	-1090.02429	383.91808	-487.41731	-1197.59844	847.14447	-731.73306	-1198.56219	753.59409	-750.77158	-1271.70072	426.76806	-682.99758	-1346.19728	379.92623	-623.39870	-1159.25591	360.95708	-720.10705	-1099.20106	392.53831	-659.72119	-1160.59048	644.49294	-419.17443	-1183.77007	776.80928	-397.90553	-1235.94450	674.57105	-396.87746	-1287.99806	768.41225	-747.36489	-1294.03103	646.85171	-735.84792	-1109.91185	1176.83769	-397.56758	-1092.04910	1068.80297	-410.91994	-1139.30366	1033.15176	-380.09045	-1219.82998	1153.03582	-386.80920	-1192.87914	1041.62235	-393.35108	-1119.85291	1136.85793	-750.02129	-1113.58016	997.22807	-732.60396	-1227.41797	1128.31097	-772.18083	-1226.32105	991.72536	-757.26367	-1116.60165	1387.12499	-448.32225	-1297.37947	1408.39948	-514.46065	-1109.93800	1379.43257	-696.68394	-1296.41630	1409.36618	-627.61900	-1095.96035	1937.06506	-578.71304	-1062.07928	1870.93017	-411.14847	-1076.57957	1872.02000	-747.28752	-1010.21218	1813.44296	-547.56874	-1013.92294	1811.56091	-606.94401	-1144.55102	1740.60623	-332.67191	-1339.26632	1639.70716	-360.41767	-1313.81462	1652.24113	-280.35935	-1379.57712	1497.32284	-228.73836	-1406.21250	1404.46965	-217.87523	-1436.64783	1437.58737	-205.76801	-1164.13946	1795.48979	-829.45688	-1347.37479	1639.06730	-800.19333	-1335.52209	1663.13447	-875.81841	-1351.41657	1601.97711	-921.62746	-1444.41705	1456.18301	-974.49496	-1476.82293	1481.88012	-973.82135	-1201.86490	1274.74591	-464.78884	-1204.12552	1276.74792	-671.72752	-1177.77122	1303.77701	-484.39728	-1176.37602	1305.17772	-648.44175	
37	0.36000000	-1148.65562	850.72824	-427.29192	-1123.39230	750.88891	-438.37029	-1256.38121	436.73400	-473.38091	-1343.55920	389.79848	-522.86122	-1151.13395	358.61238	-425.70268	-1089.97381	383.98731	-487.46671	-1198.46811	847.03265	-731.47672	-1199.14902	753.72869	-750.86720	-1271.81587	426.73232	-683.12523	-1346.31603	380.11967	-623.49135	-1159.35279	360.95723	-720.11158	-1099.27157	392.63110	-659.85950	-1160.10627	644.74234	-419.36924	-1183.06265	776.71852	-398.31772	-1235.47294	674.73021	-397.06531	-1288.68331	768.35730	-747.50015	-1294.38128	646.77201	-735.96413	-1110.27191	1176.98406	-398.11437	-1092.02054	1069.64995	-410.39596	-1139.08874	1033.13697	-380.40266	-1220.03208	1152.80671	-386.69167	-1192.71162	1041.57174	-393.25594	-1121.09354	1136.87465	-750.03763	-1114.61544	997.40155	-732.71754	-1228.67644	1128.29567	-772.43997	-1227.27645	991.76233	-757.60837	-1117.17843	1386.59955	-448.39990	-1297.95710	1409.21712	-514.28098	-1111.02163	1378.96210	-696.54684	-1296.93786	1409.74470	-626.91988	-1089.35494	1935.55258	-578.69444	-1056.66096	1869.31774	-410.93907	-1070.57506	1870.62220	-747.50989	-1005.26447	1810.89073	-547.30668	-1008.83281	1808.89263	-607.11504	-1143.32144	1742.04229	-331.96831	-1340.71478	1646.86846	-361.70857	-1315.93226	1659.26352	-281.59146	-1388.63979	1507.84026	-229.20979	-1419.47180	1416.20483	-217.68389	-1448.31998	1450.90116	-206.01545	-1160.50834	1796.89747	-829.14109	-1348.61817	1646.91574	-798.73931	-1336.55351	1670.47373	-874.51128	-1355.30870	1610.08675	-919.77656	-1454.05394	1468.41214	-973.06664	-1485.39454	1495.36618	-972.17827	-1203.08956	1274.80999	-464.52324	-1205.71969	1276.76447	-671.45792	-1179.29546	1304.24225	-484.17440	-1177.81175	1305.00880	-648.06990	
